<svg xmlns="http://www.w3.org/2000/svg" viewBox="0 0 77.35 22.91"><defs><style>.cls-1{fill:#1d1d1b;fill-rule:evenodd;}</style></defs><title>hr</title><g id="Layer_2" data-name="Layer 2"><g id="Layer_1-2" data-name="Layer 1"><path class="cls-1" d="M77.34,13.3a6.53,6.53,0,0,0-5.28-5.55,21,21,0,0,0-4.32-.44c-.78,0-.68-.86-1-1.52a7.37,7.37,0,0,0-1.36-1.85C60.55-.37,54.11.6,48.68,2.78A53,53,0,0,0,41,6.83c-.35.21-1.33-.46-1.69-.61L37,5.22,33.11,3.63C27.93,1.52,22.18-.22,16.6,0,14.18.13,10.93.9,9.13,2.74A7.52,7.52,0,0,0,7.71,4.49c-.12.24-.16.67-.35.84s-.89.23-1.22.34a9.78,9.78,0,0,0-3.6,2.19C.68,9.67-.67,13,.35,15.66S4.52,19.38,7,19.73a34,34,0,0,0,16.26-2.07,43.67,43.67,0,0,0,7.47-3.48c.49-.3,1-.61,1.48-.9.68-.39,1.36.16,2,.48,1.23.58,2.48,1.12,3.72,1.68,1.43.64,2.89,1.33,4.37,1.86A34.85,34.85,0,0,1,27,21.87a21,21,0,0,1-3.8-.21,5.32,5.32,0,0,1-2-.39c-.48-.36-.54-1.12-1.21-1.33-1.77-.56-1.1,2,.15,2.4a12.22,12.22,0,0,0,3.89.57c5.4,0,10.68-1.8,15.68-3.82.87-.35,2.72-1.68,3.57-1.41,1.07.34,2.12.77,3.2,1.08a61.48,61.48,0,0,0,8,1.9c4.43.66,9,1.3,13.51.53C72,20.5,77.6,18.7,77.34,13.3Zm-11-4.2c-1.38,5.07-9.58,4-13.25,3.17A45.09,45.09,0,0,1,59.93,10C60.77,9.76,66.13,8.34,66.37,9.1Zm-23-2A49.81,49.81,0,0,1,55.55,2.63c3.83-.79,9.33-.07,10.55,4.71-4.26,0-8.48,1.63-12.29,3.53-.86.43-1.65,1.18-2.57.8s-2-.91-3-1.38c-1.93-.94-3.89-1.82-5.85-2.7ZM9.5,3.92c3.33-3.81,9.85-2.13,14-.9A98.88,98.88,0,0,1,37.92,8.78a17.38,17.38,0,0,1-2.86,1.81c-.89.3-2.62-.72-3.54-1.07-2.32-.87-4.65-1.69-7-2.37C19.4,5.67,14.1,4.5,8.8,5.08A6.5,6.5,0,0,1,9.5,3.92Zm20.09,9.84c-4.88,2.59-10.08,4.78-15.55,5.3C9.53,19.48,1,18.72,1,12.25c0-3.33,3.66-5,6.18-5.65,0,5.61,5.9,10.73,11.14,9.24a3.76,3.76,0,0,0,2.41-2.77C21,12,20.88,10,19.4,10a1.34,1.34,0,0,0-1.3,1.17.9.9,0,0,0,.34.89c.28.2.9-.09,1.1.07.43.36.24,1.48,0,1.87a2.85,2.85,0,0,1-1.69,1.13c-2.39.69-5-.31-6.89-1.89a7.22,7.22,0,0,1-2.31-3.07c-.33-.9-1-3.72.23-3.88,2.76-.34,5.64.49,8.31,1.1a83.1,83.1,0,0,1,8,2.49c2.21.75,4.39,1.76,6.53,2.71C31,13,30.29,13.38,29.59,13.76Zm16,1.78c-3.28-1.44-6.52-3-9.83-4.36l3.27-1.82c.39-.22,2.54,1.07,3,1.25,2.47,1,4.94,1.86,7.47,2.65C48.25,14.06,46.92,14.76,45.63,15.54ZM76.3,14.25c-.38,2.87-3.66,3.88-6,4.37a34,34,0,0,1-8.19.58A52.46,52.46,0,0,1,46.3,15.83a21.47,21.47,0,0,1,3.81-2.15c1-.3,2.51.4,3.55.62a21.37,21.37,0,0,0,7.92.45c2.69-.46,4.92-1.92,5.62-4.87.22-1,.07-1,1-1a12.88,12.88,0,0,1,6,1.39A4.37,4.37,0,0,1,76.3,14.25Z"/></g></g></svg>